<svg xmlns="http://www.w3.org/2000/svg" version="1.1" xmlns:xlink="http://www.w3.org/1999/xlink" xmlns:svgjs="http://svgjs.dev/svgjs" width="1000" height="1125" viewBox="0 0 1000 1125"><g transform="matrix(1,0,0,1,0,0)"><svg viewBox="0 0 320 360" data-background-color="#282634" preserveAspectRatio="xMidYMid meet" height="1125" width="1000" xmlns="http://www.w3.org/2000/svg" xmlns:xlink="http://www.w3.org/1999/xlink"><g id="tight-bounds" transform="matrix(1,0,0,1,0,0)"><svg viewBox="0 0 320 360" height="360" width="320"><g><svg></svg></g><g><svg viewBox="0 0 320 360" height="360" width="320"><g><path xmlns="http://www.w3.org/2000/svg" d="M320 187.111c0-45.764-20.238-86.866-52.203-114.908-28.043-31.964-69.145-52.203-114.908-52.203-84.302 0-152.889 68.587-152.889 152.889 0 45.753 20.231 86.848 52.185 114.891 28.043 31.975 69.152 52.22 114.926 52.22 0.299 0 0.59-0.021 0.889-0.021 0.299 0 0.59 0.021 0.889 0.021 83.456 0 151.111-67.655 151.111-151.111 0-0.299-0.021-0.59-0.021-0.889 0-0.299 0.021-0.59 0.021-0.889zM59.833 263.097c-15.093-21.255-24.071-47.143-24.256-75.097 0.48-72.928 59.492-131.943 132.423-132.423 27.954 0.185 53.845 9.163 75.097 24.256 24.366 23.627 39.57 56.64 39.57 93.056 0 71.559-58.219 129.778-129.778 129.778-36.416 0-69.429-15.204-93.056-39.57zM3.556 172.889c0-82.343 66.99-149.333 149.333-149.333 35.051 0 67.292 12.167 92.8 32.462-22.98-13.824-49.863-21.796-78.578-21.796-84.302 0-152.889 68.587-152.889 152.889 0 28.708 7.968 55.584 21.785 78.56-20.288-25.5-32.452-57.739-32.451-92.782zM167.111 318.667c-35.84 0-68.363-14.418-92.107-37.743 21.952 15.89 48.864 25.298 77.885 25.298 73.522 0 133.333-59.812 133.333-133.333 0-29.02-9.408-55.932-25.298-77.885 23.324 23.744 37.742 56.267 37.743 92.107 0 72.54-59.015 131.556-131.556 131.556z" fill="#ff4057" fill-rule="nonzero" stroke="none" stroke-width="1" stroke-linecap="butt" stroke-linejoin="miter" stroke-miterlimit="10" stroke-dasharray="" stroke-dashoffset="0" font-family="none" font-weight="none" font-size="none" text-anchor="none" style="mix-blend-mode: normal" data-fill-palette-color="tertiary"></path></g><g transform="matrix(1,0,0,1,64,169.628442663996)"><svg viewBox="0 0 192 20.743114672008016" height="20.743114672008016" width="192"><g><svg viewBox="0 0 192 20.743114672008016" height="20.743114672008016" width="192"><g><svg viewBox="0 0 192 20.743114672008016" height="20.743114672008016" width="192"><g><svg viewBox="0 0 192 20.743114672008016" height="20.743114672008016" width="192"><g id="textblocktransform"><svg viewBox="0 0 192 20.743114672008016" height="20.743114672008016" width="192" id="textblock"><g><svg viewBox="0 0 192 20.743114672008016" height="20.743114672008016" width="192"><g transform="matrix(1,0,0,1,0,0)"><svg width="192" viewBox="1 -42.29999923706055 399.3699951171875 43.14999771118164" height="20.743114672008016" data-palette-color="#7fdbff"><path d="M35.65-37.9L22.7-14.65 22.7 0 13.9 0 13.9-14.65 1-37.9 10-37.9 18.3-22.65 26.65-37.9 35.65-37.9ZM51.15-28.3Q56.65-28.3 59.52-26.83 62.4-25.35 63.35-22.9 64.3-20.45 64.3-16.65L64.3-16.65 64.3 0 55.6 0 55.6-2.3Q53.85-0.7 52.15-0.03 50.45 0.65 48.4 0.65L48.4 0.65Q43.6 0.65 40.87-1.88 38.15-4.4 38.15-8.9L38.15-8.9Q38.15-13.45 40.92-15.9 43.7-18.35 48.65-18.35L48.65-18.35Q52.75-18.35 55.6-16.85L55.6-16.85Q55.55-18.25 55.17-19.07 54.8-19.9 53.67-20.35 52.55-20.8 50.4-20.8L50.4-20.8 44.7-20.8 44.7-28.3 51.15-28.3ZM50.25-6.05Q52.8-6.05 55.6-8.35L55.6-8.35 55.6-11Q53.2-12.15 50.75-12.15L50.75-12.15Q48.95-12.15 47.95-11.38 46.95-10.6 46.95-9L46.95-9Q46.95-7.35 47.8-6.7 48.65-6.05 50.25-6.05L50.25-6.05ZM81.75 0.85Q78.2 0.85 75.47 0.28 72.75-0.3 69.8-1.7L69.8-1.7 69.8-9.35Q72.64-7.75 75.55-7.05 78.45-6.35 81.75-6.35L81.75-6.35Q85-6.35 85-8.3L85-8.3Q85-9.1 84.55-9.5 84.09-9.9 83.09-10.15L83.09-10.15 78.25-11.15Q74-12 72.05-14.05 70.09-16.1 70.09-19.65L70.09-19.65Q70.09-24.45 73.07-26.78 76.05-29.1 82.09-29.1L82.09-29.1Q84.59-29.1 87.32-28.6 90.05-28.1 92.5-27.3L92.5-27.3 92.5-19.9Q90.59-20.8 87.87-21.35 85.15-21.9 82.55-21.9L82.55-21.9Q80.5-21.9 79.7-21.5 78.9-21.1 78.9-20.25L78.9-20.25Q78.9-19.6 79.3-19.33 79.7-19.05 80.65-18.85L80.65-18.85 85.5-17.85Q89.9-16.95 91.84-14.9 93.8-12.85 93.8-8.8L93.8-8.8Q93.8-3.95 90.55-1.55 87.3 0.85 81.75 0.85L81.75 0.85ZM115.89-28.9Q121.54-28.9 124.34-26.05 127.14-23.2 127.14-17L127.14-17 127.14 0 118.44 0 118.44-17Q118.44-19.05 117.42-20.13 116.39-21.2 113.94-21.2L113.94-21.2Q111.04-21.2 107.99-18.8L107.99-18.8 107.99 0 99.29 0 99.29-42.3 107.99-42.3 107.99-26.05Q109.84-27.5 111.77-28.2 113.69-28.9 115.89-28.9L115.89-28.9ZM158.14 0.85Q154.14 0.85 150.74 0.18 147.34-0.5 144.19-2L144.19-2 144.19-10.1Q150.54-6.75 158.14-6.75L158.14-6.75Q161.09-6.75 162.46-7.75 163.84-8.75 163.84-10.4L163.84-10.4Q163.84-12.05 162.61-12.88 161.39-13.7 158.24-14.55L158.24-14.55 154.84-15.5Q151.84-16.35 149.64-17.48 147.44-18.6 145.89-20.85 144.34-23.1 144.34-26.65L144.34-26.65Q144.34-32.5 147.91-35.55 151.49-38.6 157.99-38.6L157.99-38.6Q161.89-38.6 164.84-37.9 167.79-37.2 170.89-35.75L170.89-35.75 170.89-27.95Q165.19-31 157.99-31L157.99-31Q155.34-31 154.29-30.1 153.24-29.2 153.24-27.5L153.24-27.5Q153.24-26.35 153.74-25.68 154.24-25 155.29-24.55 156.34-24.1 158.44-23.5L158.44-23.5 161.89-22.55Q165.09-21.65 167.39-20.45 169.69-19.25 171.21-16.9 172.74-14.55 172.74-10.85L172.74-10.85Q172.69-5.4 168.81-2.27 164.94 0.85 158.14 0.85L158.14 0.85ZM191.84 0.85Q186.94 0.85 183.54-1.13 180.14-3.1 178.41-6.5 176.69-9.9 176.69-14.15L176.69-14.15Q176.69-18.35 178.41-21.75 180.14-25.15 183.54-27.13 186.94-29.1 191.84-29.1L191.84-29.1Q196.69-29.1 200.09-27.13 203.49-25.15 205.19-21.75 206.89-18.35 206.89-14.15L206.89-14.15Q206.89-9.9 205.19-6.5 203.49-3.1 200.09-1.13 196.69 0.85 191.84 0.85L191.84 0.85ZM191.84-6.55Q194.79-6.55 196.31-8.5 197.84-10.45 197.84-14.15L197.84-14.15Q197.84-17.8 196.31-19.75 194.79-21.7 191.84-21.7L191.84-21.7Q188.84-21.7 187.29-19.75 185.74-17.8 185.74-14.15L185.74-14.15Q185.74-10.45 187.29-8.5 188.84-6.55 191.84-6.55L191.84-6.55ZM228.73-28.9Q234.38-28.9 237.18-26.05 239.98-23.2 239.98-17L239.98-17 239.98 0 231.28 0 231.28-17Q231.28-19.05 230.26-20.13 229.23-21.2 226.78-21.2L226.78-21.2Q223.88-21.2 220.83-18.8L220.83-18.8 220.83 0 212.13 0 212.13-28.3 220.83-28.3 220.83-26.05Q222.68-27.5 224.61-28.2 226.53-28.9 228.73-28.9L228.73-28.9ZM257.73-28.3Q263.23-28.3 266.11-26.83 268.98-25.35 269.93-22.9 270.88-20.45 270.88-16.65L270.88-16.65 270.88 0 262.18 0 262.18-2.3Q260.43-0.7 258.73-0.03 257.03 0.65 254.98 0.65L254.98 0.65Q250.18 0.65 247.46-1.88 244.73-4.4 244.73-8.9L244.73-8.9Q244.73-13.45 247.51-15.9 250.28-18.35 255.23-18.35L255.23-18.35Q259.33-18.35 262.18-16.85L262.18-16.85Q262.13-18.25 261.76-19.07 261.38-19.9 260.26-20.35 259.13-20.8 256.98-20.8L256.98-20.8 251.28-20.8 251.28-28.3 257.73-28.3ZM256.83-6.05Q259.38-6.05 262.18-8.35L262.18-8.35 262.18-11Q259.78-12.15 257.33-12.15L257.33-12.15Q255.53-12.15 254.53-11.38 253.53-10.6 253.53-9L253.53-9Q253.53-7.35 254.38-6.7 255.23-6.05 256.83-6.05L256.83-6.05ZM295.98-28.3L304.88-28.3 295.73 0.45 284.33 0.45 275.13-28.3 284.03-28.3 290.03-7.5 295.98-28.3ZM320.38-28.3Q325.88-28.3 328.75-26.83 331.63-25.35 332.58-22.9 333.53-20.45 333.53-16.65L333.53-16.65 333.53 0 324.83 0 324.83-2.3Q323.08-0.7 321.38-0.03 319.68 0.65 317.63 0.65L317.63 0.65Q312.83 0.65 310.1-1.88 307.38-4.4 307.38-8.9L307.38-8.9Q307.38-13.45 310.15-15.9 312.93-18.35 317.88-18.35L317.88-18.35Q321.98-18.35 324.83-16.85L324.83-16.85Q324.78-18.25 324.4-19.07 324.03-19.9 322.9-20.35 321.78-20.8 319.63-20.8L319.63-20.8 313.93-20.8 313.93-28.3 320.38-28.3ZM319.48-6.05Q322.03-6.05 324.83-8.35L324.83-8.35 324.83-11Q322.43-12.15 319.98-12.15L319.98-12.15Q318.18-12.15 317.18-11.38 316.18-10.6 316.18-9L316.18-9Q316.18-7.35 317.03-6.7 317.88-6.05 319.48-6.05L319.48-6.05ZM356.87-28.9Q362.52-28.9 365.32-26.05 368.12-23.2 368.12-17L368.12-17 368.12 0 359.42 0 359.42-17Q359.42-19.05 358.4-20.13 357.37-21.2 354.92-21.2L354.92-21.2Q352.02-21.2 348.97-18.8L348.97-18.8 348.97 0 340.27 0 340.27-28.3 348.97-28.3 348.97-26.05Q350.82-27.5 352.75-28.2 354.67-28.9 356.87-28.9L356.87-28.9ZM382.47-11.45Q383.02-9.05 384.75-7.7 386.47-6.35 389.82-6.35L389.82-6.35Q391.77-6.35 393.55-6.83 395.32-7.3 397.62-8.45L397.62-8.45 399.87-1.75Q397.27-0.3 394.72 0.28 392.17 0.85 388.62 0.85L388.62 0.85Q383.67 0.85 380.2-1.03 376.72-2.9 374.92-6.3 373.12-9.7 373.12-14.2L373.12-14.2Q373.12-18.9 374.97-22.28 376.82-25.65 379.97-27.38 383.12-29.1 387.02-29.1L387.02-29.1Q393.27-29.1 396.82-25.48 400.37-21.85 400.37-14.9L400.37-14.9 400.37-11.45 382.47-11.45ZM387.02-21.9Q385.22-21.9 384.1-21 382.97-20.1 382.52-17.9L382.52-17.9 391.22-17.9Q391.02-20 390-20.95 388.97-21.9 387.02-21.9L387.02-21.9Z" opacity="1" transform="matrix(1,0,0,1,0,0)" fill="#7fdbff" class="wordmark-text-0" data-fill-palette-color="primary" id="text-0"></path></svg></g></svg></g></svg></g></svg></g><g></g></svg></g></svg></g></svg></g></svg></g><defs></defs></svg><rect width="320" height="360" fill="none" stroke="none" visibility="hidden"></rect></g></svg></g></svg>