<?xml version="1.0" standalone="no"?>
<!DOCTYPE svg PUBLIC "-//W3C//DTD SVG 20010904//EN"
 "http://www.w3.org/TR/2001/REC-SVG-20010904/DTD/svg10.dtd">
<svg version="1.0" xmlns="http://www.w3.org/2000/svg"
 width="544.000000pt" height="546.000000pt" viewBox="0 0 544.000000 546.000000"
 preserveAspectRatio="xMidYMid meet">

<g transform="translate(0.000000,546.000000) scale(0.100000,-0.100000)"
fill="#000000" stroke="none">
<path d="M0 2725 l0 -2725 2720 0 2720 0 0 2725 0 2725 -2720 0 -2720 0 0
-2725z m3567 1073 c-3 -7 -37 -87 -76 -178 -39 -91 -71 -166 -71 -167 0 -2 88
-3 195 -3 l195 0 0 -910 0 -910 -665 0 -665 0 0 155 0 155 25 0 25 0 0 -130 0
-130 615 0 615 0 0 855 0 855 -412 0 -413 0 -91 -243 c-77 -205 -94 -242 -112
-245 -27 -4 -23 -13 -120 263 l-78 220 -212 3 c-117 1 -212 0 -212 -2 0 -2 95
-198 210 -435 l210 -431 0 -240 0 -240 185 0 185 0 0 239 0 239 205 411 c188
378 207 411 230 411 14 0 25 -3 25 -8 0 -4 -92 -193 -205 -421 l-205 -413 0
-254 0 -254 -660 0 -660 0 0 910 0 910 971 0 c773 0 970 -3 966 -12z"/>
<path d="M1680 2900 l0 -860 400 0 400 0 0 232 0 231 -226 466 c-125 256 -229
469 -231 474 -2 4 119 7 269 7 l274 0 79 -225 c44 -124 82 -225 86 -225 4 0 9
10 12 22 4 12 41 113 83 225 l78 203 230 2 230 3 62 145 c35 80 63 148 63 153
1 4 -406 7 -904 7 l-905 0 0 -860z"/>
</g>
</svg>
